<svg height="482pt" viewBox="-3 0 482 482.23046" width="482pt" xmlns="http://www.w3.org/2000/svg"><path d="m243.226562 40c57.4375 0 104 46.5625 104 104s-46.5625 104-104 104-104-46.5625-104-104 46.5625-104 104-104zm56 144c0-8.835938-7.160156-16-16-16-8.835937 0-16 7.164062-16 16s7.164063 16 16 16c8.828126-.027344 15.976563-7.175781 16-16zm-80-80c0-8.835938-7.160156-16-16-16-8.835937 0-16 7.164062-16 16s7.164063 16 16 16c8.828126-.027344 15.976563-7.175781 16-16zm0 0" fill="#bddbff"/><path d="m106.589844 452.320312-60.160156 21.917969-38.320313-105.277343 60.160156-21.839844zm0 0" fill="#bddbff"/><path d="m181.949219 425.519531 5.277343 14.480469-75.199218 27.359375-5.4375-15.039063-38.320313-105.199218-5.441406-15.042969 75.121094-27.359375 12.160156 33.28125zm0 0" fill="#bddbff"/><g fill="#3d9ae2"><path d="m472.148438 287.199219c-8.910157-15.210938-28.398438-20.429688-43.71875-11.710938l-68.28125 39.390625c-1.484376-3.535156-3.621094-6.753906-6.304688-9.496094-5.984375-6.019531-14.125-9.398437-22.617188-9.382812h-120c-1.359374 0-2.695312.347656-3.886718 1.007812l-52.910156 29.441407-8.921876-24.496094c-1.503906-4.15625-6.09375-6.308594-10.246093-4.800781l-75.203125 27.359375c-1.996094.722656-3.625 2.210937-4.523438 4.132812-.902344 1.925781-1 4.128907-.273437 6.125l2.734375 7.511719-52.601563 19.167969c-1.996093.722656-3.625 2.207031-4.523437 4.132812-.902344 1.921875-1 4.125-.273438 6.121094l38.328125 105.25c1.503907 4.15625 6.089844 6.304687 10.246094 4.800781l52.632813-19.152344 2.734374 7.511719c1.503907 4.15625 6.09375 6.304688 10.25 4.796875l75.199219-27.367187c4.15625-1.503907 6.304688-6.089844 4.800781-10.246094l-1.960937-5.296875h90.398437c1.40625 0 2.785157-.371094 4-1.070312l173.203126-100c9.949218-5.675782 16.066406-16.273438 16-27.730469-.011719-5.613281-1.484376-11.128907-4.28125-16zm-420.921876 176.800781-32.796874-90.246094 45.101562-16.417968 32.839844 90.207031zm65.601563-6.847656-43.769531-120.351563 60.136718-21.898437 43.777344 120.296875zm335.601563-140.082032-171.34375 98.929688h-94.082032l-27.046875-74.320312 53.34375-29.679688h117.925781c4.242188-.007812 8.308594 1.679688 11.296876 4.6875 1.734374 1.730469 3.03125 3.851562 3.777343 6.183594.644531 1.632812.960938 3.375.925781 5.128906 0 8.835938-7.160156 16-16 16h-88v16h88c16.15625-.050781 29.726563-12.15625 31.617188-28.199219l73.550781-42.449219c4.949219-2.855468 11.046875-2.859374 16 0 4.949219 2.855469 8 8.132813 8 13.847657.042969 5.722656-3.003906 11.023437-7.964843 13.871093zm0 0"/><path d="m189.570312 186.339844 96-96.003906 11.316407 11.316406-96.003907 96zm0 0"/><path d="m259.226562 184c0 13.253906 10.746094 24 24 24 13.257813 0 24-10.746094 24-24s-10.742187-24-24-24c-13.253906 0-24 10.746094-24 24zm32 0c0 4.417969-3.578124 8-8 8-4.417968 0-8-3.582031-8-8s3.582032-8 8-8c4.421876 0 8 3.582031 8 8zm0 0"/><path d="m203.226562 128c13.257813 0 24-10.746094 24-24s-10.742187-24-24-24c-13.253906 0-24 10.746094-24 24s10.746094 24 24 24zm0-32c4.421876 0 8 3.582031 8 8s-3.578124 8-8 8c-4.417968 0-8-3.582031-8-8s3.582032-8 8-8zm0 0"/><path d="m243.226562 256c61.859376 0 112-50.144531 112-112s-50.140624-112-112-112c-61.855468 0-112 50.144531-112 112 .066407 61.828125 50.171876 111.933594 112 112zm0-208c53.019532 0 96 42.980469 96 96s-42.980468 96-96 96c-53.019531 0-96-42.980469-96-96 .058594-52.996094 43.007813-95.941406 96-96zm0 0"/><path d="m235.226562 0h16v16h-16zm0 0"/><path d="m198.25 6.925781 15.453125-4.140625 4.144531 15.453125-15.453125 4.144531zm0 0"/><path d="m164.300781 23.296875 13.859375-8 8 13.855469-13.855468 8zm0 0"/><path d="m135.75 47.835938 11.3125-11.3125 11.3125 11.3125-11.3125 11.316406zm0 0"/><path d="m114.515625 78.929688 8-13.855469 13.859375 8-8.003906 13.855469zm0 0"/><path d="m102.097656 114.480469 4.144532-15.457031 15.453124 4.144531-4.140624 15.457031zm0 0"/><path d="m99.226562 136h16v16h-16zm0 0"/><path d="m102.066406 173.546875 15.453125-4.140625 4.140625 15.453125-15.453125 4.140625zm0 0"/><path d="m114.523438 209.066406 13.855468-8 8 13.855469-13.859375 8zm0 0"/><path d="m135.75 240.167969 11.316406-11.3125 11.3125 11.3125-11.3125 11.3125zm0 0"/><path d="m164.292969 264.710938 8-13.855469 13.859375 8-8.003906 13.855469zm0 0"/><path d="m198.300781 281.082031 4.144531-15.453125 15.457032 4.144532-4.144532 15.453124zm0 0"/><path d="m235.226562 272h16v16h-16zm0 0"/><path d="m268.628906 269.707031 15.453125-4.148437 4.148438 15.460937-15.453125 4.148438zm0 0"/><path d="m300.300781 258.84375 13.859375-7.996094 7.996094 13.855469-13.855469 8zm0 0"/><path d="m328.085938 240.167969 11.316406-11.3125 11.308594 11.316406-11.3125 11.3125zm0 0"/><path d="m350.078125 214.933594 8-13.859375 13.859375 8-8 13.855469zm0 0"/><path d="m364.796875 184.859375 4.140625-15.457031 15.457031 4.140625-4.140625 15.457031zm0 0"/><path d="m371.226562 136h16v16h-16zm0 0"/><path d="m364.796875 103.144531 15.453125-4.140625 4.140625 15.453125-15.453125 4.140625zm0 0"/><path d="m350.074219 73.074219 13.855469-8 8 13.859375-13.859376 7.996094zm0 0"/><path d="m328.074219 47.832031 11.3125-11.3125 11.3125 11.3125-11.3125 11.316407zm0 0"/><path d="m300.292969 29.148438 8-13.859376 13.855469 8-7.996094 13.855469zm0 0"/><path d="m268.621094 18.28125 4.152344-15.460938 15.449218 4.148438-4.148437 15.460938zm0 0"/></g></svg>